HIERARCHY
ROOT Hips
{
	OFFSET 0.000000 0.000000 0.000000
	CHANNELS 6 Xposition Yposition Zposition Zrotation Yrotation Xrotation 
	JOINT LHipJoint
	{
		OFFSET 0.000000 0.000000 0.000000
		CHANNELS 3 Zrotation Yrotation Xrotation
		JOINT LeftUpLeg
		{
			OFFSET 1.363060 -1.794630 0.839290
			CHANNELS 3 Zrotation Yrotation Xrotation
			JOINT LeftLeg
			{
				OFFSET 2.448110 -6.726130 0.000000
				CHANNELS 3 Zrotation Yrotation Xrotation
				JOINT LeftFoot
				{
					OFFSET 2.562200 -7.039590 0.000000
					CHANNELS 3 Zrotation Yrotation Xrotation
					JOINT LeftToeBase
					{
						OFFSET 0.157640 -0.433110 2.322550
						CHANNELS 3 Zrotation Yrotation Xrotation
						End Site
						{
							OFFSET 0.000000 0.000000 0.000000
						}
					}
				}
			}
		}
	}
	JOINT RHipJoint
	{
		OFFSET 0.000000 0.000000 0.000000
		CHANNELS 3 Zrotation Yrotation Xrotation
		JOINT RightUpLeg
		{
			OFFSET -1.305520 -1.794630 0.839290
			CHANNELS 3 Zrotation Yrotation Xrotation
			JOINT RightLeg
			{
				OFFSET -2.542530 -6.985550 0.000000
				CHANNELS 3 Zrotation Yrotation Xrotation
				JOINT RightFoot
				{
					OFFSET -2.568260 -7.056230 0.000000
					CHANNELS 3 Zrotation Yrotation Xrotation
					JOINT RightToeBase
					{
						OFFSET -0.164730 -0.452590 2.363150
						CHANNELS 3 Zrotation Yrotation Xrotation
						End Site
						{
							OFFSET 0.000000 0.000000 0.000000
						}
					}
				}
			}
		}
	}
}
MOTION
Frames: 14
Frame Time: 0.008333
6.276168 16.754163 0.513750 47.783233 86.542639 58.505050 -8.555651 1.521536 5.485068 -18.436708 -8.636372 -35.494389 -2.783902 0.443212 23.945741 0.200808 -0.195298 -4.535464 0.156100 -0.000000 -13.590200 11.688170 -5.049994 -0.315616 1.309639 -15.859061 -3.285104 0.035054 -2.866378 41.694194 -0.365825 20.003058 31.850201 12.681000 -0.000000 -69.589800
6.491185 16.726451 0.544584 55.209741 86.192872 65.646198 -8.285775 1.705069 5.421464 -19.401283 -8.793397 -34.982586 -2.785618 0.594773 25.423515 0.247451 0.005082 -4.931163 0.149900 -0.000000 -12.574000 12.067977 -4.792720 -0.513329 0.276910 -16.639683 -4.622866 -0.247520 -2.969218 45.040186 -0.635833 16.139085 31.933456 10.422600 0.000000 -67.846500
6.701889 16.706121 0.573395 60.450417 85.756056 70.627217 -8.042226 1.868569 5.365342 -20.290299 -8.988052 -34.328799 -2.803620 0.714477 26.632102 0.310046 0.230166 -5.594559 0.130300 -0.000000 -11.902301 12.383277 -4.501955 -0.695098 -0.631805 -17.165766 -5.987798 -0.508186 -3.081023 48.306145 -0.900478 12.007655 31.358618 7.896900 -0.000000 -65.418399
6.908462 16.693689 0.598912 63.801975 85.297702 73.753207 -7.839652 2.000780 5.306348 -21.073524 -9.170960 -33.555004 -2.834567 0.800885 27.579071 0.383147 0.454865 -6.470500 0.093999 0.000000 -11.531300 12.629424 -4.207377 -0.844015 -1.362864 -17.396717 -7.394968 -0.745059 -3.209992 51.450871 -1.148137 7.926676 30.133134 5.388200 -0.000000 -62.520000
7.111192 16.689243 0.620712 65.641166 84.852996 75.405557 -7.679902 2.101091 5.238929 -21.743089 -9.311140 -32.674370 -2.875889 0.853510 28.255239 0.463567 0.676748 -7.478513 0.042000 0.000000 -11.423999 12.813952 -3.927617 -0.949110 -1.904616 -17.320243 -8.857566 -0.961416 -3.357562 54.440777 -1.366712 4.179903 28.328280 3.144200 -0.000000 -59.340600
7.310354 16.692424 0.639035 66.274152 84.431641 75.891466 -7.558130 2.174420 5.160172 -22.309397 -9.389523 -31.694289 -2.925487 0.873295 28.647160 0.548959 0.904887 -8.527064 -0.022200 0.000000 -11.544000 12.948928 -3.671462 -1.004336 -2.276547 -16.944063 -10.379729 -1.161447 -3.519882 57.244192 -1.545436 0.970137 26.056315 1.328100 -0.000000 -56.037700
7.506459 16.702803 0.653507 65.847886 84.052501 75.366149 -7.482298 2.224546 5.067616 -22.758665 -9.364806 -30.661720 -2.977447 0.864116 28.781974 0.632645 1.120454 -9.536869 -0.094200 0.000001 -11.834300 13.034152 -3.448232 -1.000111 -2.465153 -16.271172 -11.970439 -1.347030 -3.688579 59.828952 -1.676967 -1.613263 23.446875 -0.004100 0.000000 -52.711700
7.699830 16.719520 0.664867 64.569930 83.704003 74.035193 -7.445054 2.259630 4.961343 -23.111110 -9.227768 -29.590696 -3.029714 0.829703 28.666289 0.710847 1.327923 -10.431903 -0.167200 0.000000 -12.238099 13.080593 -3.254869 -0.936629 -2.512346 -15.334623 -13.617927 -1.517686 -3.854493 62.166485 -1.756777 -3.542461 20.617626 -0.865300 -0.000000 -49.386200
7.890883 16.741735 0.673531 62.603060 83.378996 72.060217 -7.443951 2.286368 4.841800 -23.375822 -8.965133 -28.508564 -3.079551 0.775157 28.328652 0.778126 1.516421 -11.159368 -0.234300 0.000000 -12.690100 13.093380 -3.087472 -0.814561 -2.446428 -14.169186 -15.307431 -1.669969 -4.008253 64.228688 -1.784474 -4.855329 17.674525 -1.324800 -0.000000 -46.052300
8.080021 16.768508 0.680198 60.139142 83.065399 69.627818 -7.472606 2.311377 4.710102 -23.569146 -8.576783 -27.429949 -3.126041 0.705595 27.797153 0.830304 1.677171 -11.686832 -0.289400 0.000000 -13.133100 13.079284 -2.938462 -0.639174 -2.306841 -12.821148 -17.015709 -1.798799 -4.142293 65.990944 -1.763723 -5.625692 14.709338 -1.477000 0.000000 -42.680800
8.267577 16.798957 0.685641 57.392871 82.752060 66.944158 -7.522342 2.339962 4.567894 -23.709088 -8.074090 -26.358518 -3.169722 0.625614 27.098729 0.864701 1.802169 -12.003414 -0.327800 0.000000 -13.528800 13.045549 -2.798857 -0.419070 -2.134279 -11.343527 -18.716054 -1.898898 -4.251542 67.433128 -1.702451 -5.952727 11.802130 -1.422600 0.000000 -39.247799
8.453842 16.832388 0.690440 54.569986 82.435957 64.205765 -7.586094 2.375172 4.417309 -23.808490 -7.474278 -25.294559 -3.211514 0.539212 26.262570 0.879765 1.881317 -12.117974 -0.347400 -0.000001 -13.856499 12.996930 -2.660729 -0.163923 -1.958523 -9.788373 -20.384529 -1.966282 -4.333011 68.540839 -1.612785 -5.954320 9.026122 -1.254700 -0.000000 -35.779500
8.639102 16.868104 0.695190 51.874107 82.118664 61.605356 -7.654544 2.418219 4.261158 -23.882170 -6.807297 -24.224407 -3.253197 0.448931 25.308649 0.876213 1.911575 -12.052277 -0.348500 0.000000 -14.126800 12.939071 -2.516778 0.114232 -1.807444 -8.209508 -21.997584 -1.999454 -4.386391 69.307673 -1.509042 -5.751190 6.440480 -1.045700 0.000000 -32.328000
8.823562 16.905592 0.700291 49.455972 81.809936 59.284318 -7.721903 2.468178 4.102686 -23.936886 -6.104285 -23.134728 -3.295933 0.356409 24.255949 0.855604 1.890190 -11.837081 -0.333400 0.000000 -14.364501 12.874255 -2.362371 0.404314 -1.693678 -6.651840 -23.538414 -1.999595 -4.412535 69.734527 -1.406206 -5.460993 4.086803 -0.844500 0.000000 -28.968300
